<svg xmlns="http://www.w3.org/2000/svg" focusable="false" viewBox="0 0 24 24" aria-hidden="true"><path fill="#00B4C4" d="M23.925 10.717a.73.73 0 00-.67-.437H21.19a.71.71 0 00-.507.2c-1.268 1.147-2.717 1.675-4.42 1.584-2.97-.2-5.198-2.457-5.162-5.24.018-2.093 1.72-3.785 3.858-3.785.851 0 1.72.4 2.264 1.055.09.11.236.31.326.51a.76.76 0 010 .49.8.8 0 01-.942.474V5.55a2.227 2.227 0 00-.76-.128c-.906 0-1.721.583-2.047 1.438a2.193 2.193 0 00.634 2.402c.036.036.072.072.108.09l.055.037.018.018a.396.396 0 00.09.073c1.087.6 2.41.655 3.532.11 1.287-.638 2.21-1.948 2.446-3.513.217-1.4-.2-2.82-1.16-3.948C18.42.8 16.716.019 14.995 0h-.09c-3.732 0-6.793 3.039-6.829 6.787a7.585 7.585 0 00.254 2.147 2.7 2.7 0 01-.38-.036c-3.044-.2-5.76 1.055-7.771 3.566a.719.719 0 00-.09.819.76.76 0 00.67.437h2.064c.2 0 .38-.073.507-.2 1.268-1.165 2.735-1.693 4.42-1.584 2.97.182 5.198 2.438 5.162 5.24-.018 2.093-1.72 3.785-3.858 3.785-.851-.018-1.72-.418-2.264-1.055-.09-.11-.236-.31-.326-.528a.706.706 0 010-.473.8.8 0 01.942-.473c.253.091.507.146.76.146.906 0 1.721-.583 2.047-1.438a2.222 2.222 0 00-.634-2.42c-.036-.036-.054-.054-.108-.072l-.055-.037c0-.018 0-.018-.018-.018-.018-.037-.054-.055-.09-.073a3.79 3.79 0 00-3.532-.11c-1.286.638-2.21 1.948-2.446 3.513-.217 1.4.2 2.802 1.16 3.948A6.1 6.1 0 009.018 24h.09c3.732 0 6.793-3.057 6.83-6.787.017-.746-.091-1.474-.255-2.165.127.018.254.036.38.036.218.018.418.018.617.018 2.807 0 5.27-1.237 7.154-3.584a.752.752 0 00.09-.8z"></path></svg>